<svg xmlns="http://www.w3.org/2000/svg" viewBox="0 0 142.92 150"><defs><style>.cls-1{fill:#ebebeb;}.cls-2{fill:#e0e0e0;}.cls-3{fill:#f5f5f5;}.cls-4{fill:#dd7800;}.cls-5,.cls-6{fill:#263238;}.cls-11,.cls-15,.cls-16,.cls-21,.cls-5,.cls-7,.cls-8{isolation:isolate;}.cls-15,.cls-17,.cls-21,.cls-5{opacity:0.3;}.cls-10,.cls-15,.cls-7,.cls-8{fill:#fff;}.cls-7{opacity:0.1;}.cls-11,.cls-8{opacity:0.2;}.cls-9{fill:#0f0f0f;}.cls-12{fill:#a02724;}.cls-13{fill:#b55b52;}.cls-14{fill:#407bff;}.cls-16{fill:#111;opacity:0.4;}.cls-18{fill:#08c427;}.cls-19{opacity:0.5;}.cls-20{fill:#ffc3bd;}.cls-22{fill:#ed847e;}</style></defs><g id="Layer_2" data-name="Layer 2"><g id="Layer_1-2" data-name="Layer 1"><g id="Background_Complete" data-name="Background Complete"><line class="cls-1" y1="138.92" y2="139.03"/><rect class="cls-2" x="80.24" y="74.74" width="5" height="3.38"/><line class="cls-1" x1="80.24" y1="74.74" x2="80.24" y2="78.12"/><path class="cls-3" d="M11.06,84.25H52.3a.79.79,0,0,0,.81-.76v-1a.79.79,0,0,0-.81-.76H11.06a.78.78,0,0,0-.81.76v1A.78.78,0,0,0,11.06,84.25Z"/></g><g id="Desk"><path class="cls-4" d="M134.86,84.68H7.2a1.49,1.49,0,0,1-1.53-1.43h0A1.48,1.48,0,0,1,7.2,81.83H134.86a1.48,1.48,0,0,1,1.53,1.42h0A1.49,1.49,0,0,1,134.86,84.68Z"/><path class="cls-5" d="M134.86,84.68H105a1.49,1.49,0,0,1-1.53-1.43h0A1.48,1.48,0,0,1,105,81.83h29.89a1.48,1.48,0,0,1,1.53,1.42h0A1.49,1.49,0,0,1,134.86,84.68Z"/><rect class="cls-6" x="33.44" y="88.25" width="98.18" height="9.94"/><rect class="cls-7" x="33.44" y="88.25" width="98.18" height="9.94"/><polygon class="cls-6" points="130.19 147.8 133.13 147.8 133.01 84.68 128.94 84.68 130.19 147.8"/><polygon class="cls-7" points="130.19 147.8 133.13 147.8 133.01 84.68 128.94 84.68 130.19 147.8"/><polygon class="cls-6" points="103.12 147.8 100.18 147.8 106.83 84.68 110.89 84.68 103.12 147.8"/><polygon class="cls-8" points="103.12 147.8 100.18 147.8 106.83 84.68 110.89 84.68 103.12 147.8"/><polygon class="cls-6" points="32.41 147.8 35.35 147.8 35.23 84.68 31.16 84.68 32.41 147.8"/><polygon class="cls-7" points="32.41 147.8 35.35 147.8 35.23 84.68 31.16 84.68 32.41 147.8"/><polygon class="cls-6" points="5.34 147.8 2.4 147.8 9.05 84.68 13.12 84.68 5.34 147.8"/><polygon class="cls-8" points="5.34 147.8 2.4 147.8 9.05 84.68 13.12 84.68 5.34 147.8"/><polygon class="cls-6" points="88.03 81.83 81.26 81.83 78.54 69.5 85.32 69.5 88.03 81.83"/><path class="cls-6" d="M97,79.29H67.62A1.61,1.61,0,0,1,66,77.64l1.13-17.32A1.86,1.86,0,0,1,69,58.67h29.4A1.59,1.59,0,0,1,100,60.32L98.91,77.64A1.87,1.87,0,0,1,97,79.29Z"/><path class="cls-9" d="M96.57,79.29H67.16a1.6,1.6,0,0,1-1.67-1.65l1.13-17.32a1.86,1.86,0,0,1,1.88-1.65H97.9a1.59,1.59,0,0,1,1.67,1.65L98.44,77.64A1.85,1.85,0,0,1,96.57,79.29Z"/><path class="cls-10" d="M67.16,78.43a.82.82,0,0,1-.55-.21.69.69,0,0,1-.2-.53l1.13-17.32a1,1,0,0,1,1-.84H97.9a.8.8,0,0,1,.55.21.69.69,0,0,1,.2.53L97.53,77.59a1,1,0,0,1-1,.84Z"/><polygon class="cls-11" points="80.07 58.67 81.98 64.76 87.66 58.67 80.07 58.67"/></g><g id="Character"><path class="cls-6" d="M34.37,43.91c0,.33.27.58.5.56s.38-.3.34-.63-.27-.58-.5-.56S34.33,43.58,34.37,43.91Z"/><path class="cls-12" d="M34.76,44.39a10.26,10.26,0,0,0,1.59,2.38,1.85,1.85,0,0,1-1.43.28Z"/><path class="cls-6" d="M33.21,42.64a.17.17,0,0,1-.1,0,.19.19,0,0,1-.12-.25,2,2,0,0,1,1.43-1.16.22.22,0,0,1,.24.16.2.2,0,0,1-.17.23,1.55,1.55,0,0,0-1.11.91A.21.21,0,0,1,33.21,42.64Z"/><path class="cls-13" d="M23.93,49.07l2.77,2,3.77,2.68A3.65,3.65,0,0,0,30.1,55c-.13,1-.26,1.74,2.09,2.32a1.28,1.28,0,0,1,1,1c.1.58-.29,1.3-2.46,1.64a10.7,10.7,0,0,1-6.14-1c-.92-.41-.94-.94-.53-1.81C25.22,54.67,24.65,51.52,23.93,49.07Z"/><path class="cls-14" d="M20.77,57.92a16.49,16.49,0,0,0,1.3-3s7-.36,9.32.29,3.74,3.42,3.74,3.42Z"/><path class="cls-13" d="M23.69,62.77c-.17.48-.36,1.06-.54,1.6L22.63,66c-.32,1.12-.63,2.23-.88,3.35a30.55,30.55,0,0,0-.59,3.3,14,14,0,0,0-.1,3.07A6.36,6.36,0,0,0,21.27,77c0,.09.05.18.08.26l.09.23v0s0,0,0,0l-.08-.12-.15-.18A1.1,1.1,0,0,0,21,77c-.09-.06-.1-.05-.08,0a2,2,0,0,0,.43.22,7.16,7.16,0,0,0,.71.26c.53.16,1.1.31,1.69.45,2.38.56,5,1,7.5,1.49l-.08,3a40,40,0,0,1-4.07.31A38.31,38.31,0,0,1,23,82.65a21.43,21.43,0,0,1-2.18-.25c-.38-.06-.77-.14-1.19-.24a7.38,7.38,0,0,1-1.38-.48,4.77,4.77,0,0,1-.91-.53,4.71,4.71,0,0,1-.56-.5,3.78,3.78,0,0,1-.29-.36l-.14-.22-.06-.1-.32-.61c-.1-.2-.17-.4-.26-.6a11.87,11.87,0,0,1-.62-2.31,24.17,24.17,0,0,1,.38-8.21c.26-1.29.56-2.55.93-3.79.18-.63.37-1.24.58-1.86s.43-1.2.69-1.87Z"/><path class="cls-14" d="M19.43,57.39c4.35-1.07,6.93,2.25,5.46,7.73s-2,5.66-2,5.66l-9-1.39C15.06,64,15,58.49,19.43,57.39Z"/><path class="cls-13" d="M33.49,78.27l-.68-.06c-1.92,0-2.25.49-3.44,1.52L28.93,82c3.11,1.48,4.78-.14,4.78-.15h2.88l-1-2.16A2.51,2.51,0,0,0,33.49,78.27Z"/><path class="cls-13" d="M22.75,44.81c.78,3.9,1,6.22,3.43,8a5.8,5.8,0,0,0,9.07-3.93c.43-3.65-.92-9.42-5.26-10.44S22,40.9,22.75,44.81Z"/><path class="cls-6" d="M31.06,46.17c3-.22,2.12-3.16,1.19-3.77a2.49,2.49,0,0,0,1-4c.79-1.93-1.47-4.24-5.44-3.9-2.9.26-3.23,1.68-3.23,1.68s-3.48-.34-4.93,2.33c-1.23,2.29.26,3.51.26,3.51s-2.59.7-1.88,3.87c.77,3.4,3.58,2.61,3.58,2.61S21,51.62,24.8,51.67c3.28,0,3.32-2.25,3.32-2.25S32.38,49,31.06,46.17Z"/><path class="cls-13" d="M28.83,46.4a3.77,3.77,0,0,0,1.82,1.94c1.1.52,1.93-.56,1.74-1.67a2.85,2.85,0,0,0-2.26-2.34A1.4,1.4,0,0,0,28.83,46.4Z"/><polygon class="cls-13" points="73.47 142.9 77.56 141.35 74.67 132.21 70.58 133.75 73.47 142.9"/><polygon class="cls-11" points="71.98 138.19 76.11 136.78 74.67 132.21 70.58 133.75 71.98 138.19"/><path class="cls-6" d="M77.2,139.8l-4.68,1.52a.29.29,0,0,0-.21.36l1.06,3.52a.79.79,0,0,0,1,.45c1.62-.55,2.27-.85,4.27-1.65,1.23-.5,4.17-1.69,5.77-2.57s.62-2.31-.14-2.07c-1.8.56-4.75.93-6.25.45A1.32,1.32,0,0,0,77.2,139.8Z"/><path class="cls-6" d="M40.59,90.13S71.53,92.72,72.32,101c1.61,16.84,4.08,33.08,4.08,33.08l-6.29,2.14s-7.71-18.5-7.6-31.7c-8.92-2.34-32.39,1.1-36.22-5.31-3.39-5.65-.42-9.71-.42-9.71Z"/><polygon class="cls-14" points="69.65 137.55 77.48 135.09 77.14 131.77 68.31 134.42 69.65 137.55"/><path class="cls-14" d="M78.93,140a5.34,5.34,0,0,1-1.16.22.1.1,0,0,1-.1,0,.09.09,0,0,1,0-.11c.1-.13,1-1.26,1.57-1.24a.39.39,0,0,1,.32.18.5.5,0,0,1,.07.53A1.18,1.18,0,0,1,78.93,140ZM78,140c.79-.1,1.33-.3,1.46-.54a.33.33,0,0,0,0-.35.18.18,0,0,0-.15-.09C78.93,139,78.36,139.56,78,140Z"/><path class="cls-14" d="M77.79,140.22h-.05a.1.1,0,0,1-.08-.05s-.53-1.13-.25-1.65a.54.54,0,0,1,.37-.26.41.41,0,0,1,.45.16,2,2,0,0,1-.39,1.77Zm0-1.76a.28.28,0,0,0-.17.15c-.17.31,0,.95.18,1.32a1.79,1.79,0,0,0,.27-1.41c0-.05-.08-.1-.23-.07Z"/><polygon class="cls-13" points="51.56 145.62 55.94 145.43 56.65 135.82 52.28 136.01 51.56 145.62"/><path class="cls-6" d="M56,144.73l-5-.15a.3.3,0,0,0-.33.27l-.37,3.64a.76.76,0,0,0,.75.75c1.73,0,2.55,0,4.73,0a43,43,0,0,0,5.81,0c1.8-.21,1.56-1.9.76-2A12.46,12.46,0,0,1,56.79,145,1.32,1.32,0,0,0,56,144.73Z"/><path class="cls-14" d="M57.57,145.49a5.75,5.75,0,0,1-1.17-.18.11.11,0,0,1-.07-.08.08.08,0,0,1,0-.09c.15-.09,1.42-.85,2-.63a.35.35,0,0,1,.23.27.53.53,0,0,1-.15.52A1.3,1.3,0,0,1,57.57,145.49Zm-.88-.31a2.23,2.23,0,0,0,1.58,0,.31.31,0,0,0,.08-.34.15.15,0,0,0-.1-.14C58,144.57,57.21,144.89,56.69,145.18Z"/><path class="cls-14" d="M56.43,145.31h0a.1.1,0,0,1-.05-.08c0-.05-.06-1.23.4-1.62a.56.56,0,0,1,.44-.12.39.39,0,0,1,.36.3c.09.45-.6,1.29-1.05,1.52Zm.66-1.64a.32.32,0,0,0-.23.07,2,2,0,0,0-.33,1.3c.39-.29.85-.93.8-1.22,0-.06,0-.13-.19-.15Z"/><polygon class="cls-11" points="52.28 136.01 56.65 135.82 56.24 141.31 51.88 141.31 52.28 136.01"/><path class="cls-6" d="M30.32,89.69s33.33,4.74,32.8,11.88c-.95,12.85-5.58,38-5.58,38l-6.57.08s-1.55-25.75.91-35.14c-8.2,0-31.33-.26-34.48-4.18-3.49-4.33.1-11.14.1-11.14Z"/><polygon class="cls-14" points="50.2 140.09 58.14 139.98 58.53 136.07 49.81 136.39 50.2 140.09"/><path class="cls-14" d="M36.19,57c-2.69-.49-14.79-.35-14.79-.35a4.75,4.75,0,0,0-4.94,4c-.42,3.47,1.95,11.23,2,15.19.1,4.86-.9,6.83-1,13.37l23.09,1c0-13.16-.61-24.06-1.17-29.28C39.22,59,38.87,57.44,36.19,57Z"/><path class="cls-15" d="M36.19,57c-2.69-.49-14.79-.35-14.79-.35a4.75,4.75,0,0,0-4.94,4c-.42,3.47,1.95,11.23,2,15.19.1,4.86-.9,6.83-1,13.37l23.09,1c0-13.16-.61-24.06-1.17-29.28C39.22,59,38.87,57.44,36.19,57Z"/><path class="cls-13" d="M39.35,61.11c.72,2.31,1.45,4.68,2.2,7s1.52,4.65,2.39,6.86c.21.56.44,1.08.66,1.62l.35.76,0,.09,0,0v0a1.75,1.75,0,0,0-.3-.36c-.16-.14-.22-.15-.23-.15a1.13,1.13,0,0,0,.35.2,6.13,6.13,0,0,0,.7.26c.52.17,1.1.32,1.7.47,2.4.57,5,1,7.59,1.52l-.08,3a41,41,0,0,1-4.13.32,39.5,39.5,0,0,1-4.2-.08c-.72,0-1.45-.13-2.22-.26-.39-.07-.79-.15-1.22-.27a6.83,6.83,0,0,1-1.47-.57,4.31,4.31,0,0,1-1-.72,3.68,3.68,0,0,1-.59-.74l-.15-.27-.52-.91c-.31-.6-.64-1.21-.91-1.8-.57-1.2-1.07-2.39-1.56-3.59s-.93-2.39-1.35-3.59c-.85-2.41-1.62-4.8-2.29-7.27Z"/><path class="cls-14" d="M32.79,58.72c3.16-3,7.19-1.36,8.93,4.05s1.42,5.81,1.42,5.81l-8.48,3.06C32.66,66.48,29.56,61.78,32.79,58.72Z"/><path class="cls-13" d="M57.07,78.27l-.67-.06c-1.93,0-2.26.49-3.44,1.52L52.52,82c3.1,1.48,4.77-.14,4.77-.15h2.88l-1-2.16A2.52,2.52,0,0,0,57.07,78.27Z"/><path class="cls-14" d="M18.51,106H48a1.13,1.13,0,0,0,1.17-1.09v-1.76A1.13,1.13,0,0,0,48,102.09H18.51a1.14,1.14,0,0,0-1.18,1.09v1.76A1.14,1.14,0,0,0,18.51,106Z"/><polygon class="cls-14" points="18.64 150 17.33 150 18.84 106.03 20.65 106.03 18.64 150"/><polygon class="cls-16" points="18.64 150 17.33 150 18.84 106.03 20.65 106.03 18.64 150"/><polygon class="cls-14" points="30.67 150 31.97 150 30.47 106.03 28.66 106.03 30.67 150"/><polygon class="cls-16" points="30.67 150 31.97 150 30.47 106.03 28.66 106.03 30.67 150"/><polygon class="cls-14" points="35.85 150 34.54 150 36.05 106.03 37.86 106.03 35.85 150"/><polygon class="cls-16" points="35.85 150 34.54 150 36.05 106.03 37.86 106.03 35.85 150"/><polygon class="cls-14" points="47.88 150 49.18 150 47.68 106.03 45.87 106.03 47.88 150"/><polygon class="cls-16" points="47.88 150 49.18 150 47.68 106.03 45.87 106.03 47.88 150"/><g class="cls-17"><polygon class="cls-14" points="18.84 106.03 20.65 106.03 20.56 107.9 18.77 107.9 18.84 106.03"/><polygon class="cls-14" points="30.53 107.9 28.75 107.9 28.66 106.03 30.47 106.03 30.53 107.9"/><polygon class="cls-14" points="37.85 106.03 37.77 107.9 35.98 107.9 36.05 106.03 37.85 106.03"/><polygon class="cls-14" points="47.75 107.9 45.96 107.9 45.87 106.03 47.68 106.03 47.75 107.9"/></g></g><g id="Telecommuting"><path class="cls-18" d="M135.38,52.3H61.66a4,4,0,0,1-4.18-4.14L60.3,4.75A4.67,4.67,0,0,1,65,.62h73.73a4,4,0,0,1,4.17,4.13L140.1,48.16A4.67,4.67,0,0,1,135.38,52.3Z"/><polygon class="cls-18" points="71.53 43.12 78.33 64.76 98.5 43.12 71.53 43.12"/><path class="cls-7" d="M131.81,34.83H90.48a2.24,2.24,0,0,1-2.34-2.32L89.72,8.18a2.61,2.61,0,0,1,2.64-2.32h41.33A2.24,2.24,0,0,1,136,8.18l-1.58,24.33A2.61,2.61,0,0,1,131.81,34.83Z"/><path class="cls-7" d="M109.7,45.32H68.37A2.23,2.23,0,0,1,66,43l1.58-24.34a2.61,2.61,0,0,1,2.64-2.31h41.33a2.23,2.23,0,0,1,2.34,2.31L112.34,43A2.61,2.61,0,0,1,109.7,45.32Z"/><g class="cls-19"><path class="cls-10" d="M67.82,4.4A1.36,1.36,0,0,1,66.5,5.67,1.14,1.14,0,0,1,65.38,4.4,1.37,1.37,0,0,1,66.7,3.12,1.14,1.14,0,0,1,67.82,4.4Z"/><path class="cls-10" d="M72.35,4.4A1.38,1.38,0,0,1,71,5.67,1.14,1.14,0,0,1,69.9,4.4a1.37,1.37,0,0,1,1.32-1.28A1.15,1.15,0,0,1,72.35,4.4Z"/><path class="cls-10" d="M76.87,4.4a1.38,1.38,0,0,1-1.32,1.27A1.14,1.14,0,0,1,74.42,4.4a1.38,1.38,0,0,1,1.32-1.28A1.15,1.15,0,0,1,76.87,4.4Z"/></g><path class="cls-5" d="M134.83,51.89H61.11A4.43,4.43,0,0,1,58,50.65a3.78,3.78,0,0,1-1.15-3L59.63,4.23A4.78,4.78,0,0,1,64.46,0h73.72a4.42,4.42,0,0,1,3.15,1.25,3.84,3.84,0,0,1,1.15,3l-2.82,43.41A4.77,4.77,0,0,1,134.83,51.89ZM64.46.21a4.55,4.55,0,0,0-4.6,4L57.05,47.66a3.58,3.58,0,0,0,1.09,2.84,4.16,4.16,0,0,0,3,1.18h73.72a4.54,4.54,0,0,0,4.6-4l2.82-43.42a3.61,3.61,0,0,0-1.09-2.84,4.2,4.2,0,0,0-3-1.18Z"/><path class="cls-6" d="M94.91,26.51c-.31.62-.6,1.15-.92,1.71s-.64,1.08-1,1.62C92.34,30.9,91.65,32,90.88,33q-.57.77-1.17,1.53c-.42.49-.81,1-1.26,1.48a32.77,32.77,0,0,1-2.81,2.85c-.26.23-.53.45-.8.67s-.53.44-.84.65l-.88.62-.27.17-.37.19a4,4,0,0,1-2.44.27,3.73,3.73,0,0,1-1.49-.64,3.86,3.86,0,0,1-.6-.54l-.12-.15L77.77,40l0,0-.09-.13-.33-.56c-.1-.18-.17-.35-.25-.53a12.58,12.58,0,0,1-.71-2A24.81,24.81,0,0,1,75.7,33a30.69,30.69,0,0,1-.18-3.72,1.55,1.55,0,0,1,1.62-1.45,1.58,1.58,0,0,1,1.5,1.07v.05a51.36,51.36,0,0,0,2.26,6.41,9.73,9.73,0,0,0,.71,1.3c.06.09.12.19.18.27a1.71,1.71,0,0,1,.18.2l0,.05h0l0,0L82,37.08a1.79,1.79,0,0,0-.25-.23,1.57,1.57,0,0,0-.63-.29,1.6,1.6,0,0,0-.69,0,1.4,1.4,0,0,0-.35.1l-.17.08-.08.05.58-.53a5.86,5.86,0,0,0,.57-.55l.57-.57a45.24,45.24,0,0,0,4.1-5.35c.64-1,1.26-1.93,1.86-2.92l.89-1.48.84-1.45,0-.07a3.3,3.3,0,0,1,4.3-1.2A2.86,2.86,0,0,1,94.91,26.51Z"/><path class="cls-20" d="M76,29.09,73.71,27.9l2.41-2.29a13.7,13.7,0,0,1,2,1.64,1.17,1.17,0,0,1-.37,1.92h0A2,2,0,0,1,76,29.09Z"/><path class="cls-20" d="M73.2,25.44l1.22-.81a.78.78,0,0,1,1,.15l.67.83L73.71,27.9,73,26.29A.67.67,0,0,1,73.2,25.44Z"/><path class="cls-10" d="M90.08,24.6a3.36,3.36,0,0,1,2.66-2.21A23.1,23.1,0,0,1,95.45,22a76.83,76.83,0,0,1,8.24.15c1.44.08,2.9.27,4.07.45h0a2.23,2.23,0,0,1,2,2.53c-.58,3.09-2.27,8.47-2.45,13.54-.24,6.67-.13,10.5-.26,12.11l-18.44-.33C87.33,34.17,88.93,28.28,90.08,24.6Z"/><path class="cls-6" d="M108.3,22.35h0c-1.23-.18-2.77-.38-4.29-.48l-.82,0c-.81,3.1-5.61,8.31-7.06,16.22-.57-6.61-1-13.52-.18-16.21a38.77,38.77,0,0,0-3.89.31,3.85,3.85,0,0,0-2.92,2.52c-1.13,3.1-3.29,10.05-2,27.13h20.49c.13-1.7-.35-5.32.39-10.85.72-5.36,1.74-12.66,2.35-15.92A2.35,2.35,0,0,0,108.3,22.35Z"/><path class="cls-8" d="M95.62,50.9a.12.12,0,0,1-.12-.1A72.81,72.81,0,0,1,95.88,39a.12.12,0,0,1,.14-.1.12.12,0,0,1,.11.13,69.81,69.81,0,0,0-.38,11.76.12.12,0,0,1-.12.12Z"/><path class="cls-21" d="M107.58,29.13c-.76,3.2-.36,7.64.45,11.69.61-4.55,1.43-10.44,2-14.09C109.22,26.2,108.18,26.57,107.58,29.13Z"/><path class="cls-20" d="M95.84,22c2.4-.48,2.81-1.85,2.64-3.37a9.25,9.25,0,0,0-.2-1.13l3-2.27,2.2-1.66c-.6,2.46-1.26,6.94.55,8.62,0,0-1.47,2.25-5.57,2C95,23.91,95.84,22,95.84,22Z"/><polygon class="cls-2" points="99.48 23.58 98.81 24.16 100.93 24.9 100.66 24.15 99.48 23.58"/><path class="cls-3" d="M101.1,26s-.83-2-1.62-2.37a8.83,8.83,0,0,0,4.1-2.12l1.26.47S105.23,24.18,101.1,26Z"/><polygon class="cls-2" points="98.32 23.43 98.81 24.16 96.59 24.34 97.03 23.68 98.32 23.43"/><path class="cls-3" d="M95.47,25.39a10,10,0,0,1,2.85-2C97.11,23.09,97,21.54,97,21.54l-1.17.21S93.7,23.7,95.47,25.39Z"/><path class="cls-11" d="M98.28,17.48a9.25,9.25,0,0,1,.2,1.13c1.11-.19,2.6-1.27,2.75-2.33a3.88,3.88,0,0,0,0-1.06Z"/><path class="cls-6" d="M94.66,6.27c-1.07,1.22-1,5.64,1.29,5.69S96.6,4.05,94.66,6.27Z"/><path class="cls-20" d="M104.4,9.48c-.23,3.35-.18,5.31-2,7a4.85,4.85,0,0,1-8-2.22c-.77-3-.27-8,3.24-9.32A4.81,4.81,0,0,1,104.4,9.48Z"/><path class="cls-6" d="M102.63,6.7c-2.26,2.09.68,3.61-.47,4.74,2.13,1,1.35,1.8,1.35,1.8a2.42,2.42,0,0,0,0,1.76c2.4-.58,6.86-8,2-9.14C102.59,7.07,102.63,6.7,102.63,6.7Z"/><path class="cls-6" d="M103.55,8.2c-2.14.31-4.83-.64-6.5-1.45s-1.92.72-1.3,1.18a2,2,0,0,1-2.1-2.52c.31-1.6,2.57-3.12,5.79-1.76,2.28,1,5.09-.31,6.18.8S105,8,103.55,8.2Z"/><path class="cls-6" d="M105,6c1.44-.18,1.5-1,1.1-2.5,1.55,2.05.93,2.68,0,3.18C105.09,6.38,105,6,105,6Z"/><path class="cls-20" d="M105.36,12.05a3.13,3.13,0,0,1-1.57,1.49c-.89.38-1.34-.39-1.1-1.28s.94-2,1.84-2S105.76,11.22,105.36,12.05Z"/><path class="cls-6" d="M98.78,10.49c0,.28-.15.5-.34.5s-.35-.22-.35-.49.16-.49.35-.5S98.78,10.22,98.78,10.49Z"/><path class="cls-6" d="M95.48,10.52c0,.27-.15.49-.34.5s-.35-.22-.35-.49.16-.5.35-.5S95.49,10.25,95.48,10.52Z"/><path class="cls-22" d="M96.71,10.62A9.72,9.72,0,0,1,95.31,13a1.76,1.76,0,0,0,1.39.24Z"/><path class="cls-6" d="M97.89,13.91A2.43,2.43,0,0,0,99.58,13s0-.08,0-.11a.09.09,0,0,0-.11,0,2.39,2.39,0,0,1-1.89.86.09.09,0,0,0-.09.08.09.09,0,0,0,.09.08Z"/><path class="cls-6" d="M100.38,9.41a.11.11,0,0,0,.08,0,.14.14,0,0,0,0-.22,1.76,1.76,0,0,0-1.4-.65.15.15,0,0,0-.15.17.18.18,0,0,0,.19.15,1.39,1.39,0,0,1,1.09.52A.17.17,0,0,0,100.38,9.41Z"/><path class="cls-6" d="M94.15,9.54a.13.13,0,0,0,.13-.08,1.41,1.41,0,0,1,1-.74.16.16,0,0,0,.15-.18.18.18,0,0,0-.2-.13h0a1.72,1.72,0,0,0-1.23.9.17.17,0,0,0,.08.22A.17.17,0,0,0,94.15,9.54Z"/><path class="cls-6" d="M110.89,24.28c.56,1.1,1,2.13,1.49,3.22s.88,2.16,1.28,3.25a51.08,51.08,0,0,1,2,6.8c.11.6.23,1.18.3,1.79l.07.46,0,.22v.12l0,.16a6.59,6.59,0,0,1,0,1.33,5.85,5.85,0,0,1-1,2.71,6.58,6.58,0,0,1-2.09,1.82,9,9,0,0,1-2.22.87,12.66,12.66,0,0,1-2.12.35,17.36,17.36,0,0,1-2,0,18.16,18.16,0,0,1-2-.2,1.48,1.48,0,0,1-1.3-1.7,1.51,1.51,0,0,1,1.22-1.19l.16,0c.48-.09,1.07-.21,1.58-.34s1-.28,1.53-.44a7.08,7.08,0,0,0,2.33-1.2,1.56,1.56,0,0,0,.4-.57,1,1,0,0,0,0-.46,1.87,1.87,0,0,0-.07-.34l-.16-.7c-.11-.49-.26-1-.4-1.49-.29-1-.61-2-1-3s-.74-2-1.14-3-.83-2-1.25-3l-1.31-3,0,0a2.88,2.88,0,0,1,1.68-3.88A3.29,3.29,0,0,1,110.89,24.28Z"/><path class="cls-20" d="M103,45.56l-2,.9,3.51,1.15s2.33-.69,1.2-1.9l-.63-.18A2.4,2.4,0,0,0,103,45.56Z"/><path class="cls-20" d="M101.27,48.77l1.54.27a1.08,1.08,0,0,0,1.13-.49l.57-.94L101,46.46l-.49.89A1,1,0,0,0,101.27,48.77Z"/></g></g></g></svg>